<?xml version="1.0" standalone="no"?>
<!DOCTYPE svg PUBLIC "-//W3C//DTD SVG 20010904//EN"
 "http://www.w3.org/TR/2001/REC-SVG-20010904/DTD/svg10.dtd">
<svg version="1.0" xmlns="http://www.w3.org/2000/svg"
 width="1280.000000pt" height="1234.000000pt" viewBox="0 0 1280.000000 1234.000000"
 preserveAspectRatio="xMidYMid meet">
<metadata>
Created by potrace 1.15, written by Peter Selinger 2001-2017
</metadata>
<g transform="translate(0.000000,1234.000000) scale(0.100000,-0.100000)"
fill="#000000" stroke="none">
<path d="M10014 12325 c-4 -9 -2 -47 4 -83 38 -225 18 -432 -55 -566 -10 -19
-35 -58 -55 -88 -61 -91 -81 -165 -81 -293 1 -90 6 -126 28 -200 72 -237 86
-310 86 -470 l1 -113 -76 -127 c-85 -143 -131 -247 -145 -326 -5 -30 -30 -108
-56 -174 -26 -66 -60 -172 -77 -235 -27 -100 -31 -132 -32 -251 l-1 -136 53
-107 c29 -58 106 -186 172 -283 l118 -177 -23 -30 c-81 -108 -221 -373 -280
-530 -60 -161 -78 -259 -81 -433 l-2 -153 -47 -52 c-190 -210 -410 -647 -481
-953 -27 -117 -25 -292 4 -364 l21 -54 -31 -36 c-39 -44 -102 -176 -125 -261
-14 -50 -18 -102 -18 -220 1 -168 8 -208 70 -402 44 -140 57 -212 57 -333 0
-114 -13 -194 -49 -309 -46 -146 -113 -270 -324 -601 -193 -304 -275 -707
-193 -951 25 -76 70 -139 141 -196 l65 -53 -58 -8 c-162 -22 -405 -107 -477
-167 -21 -17 -56 -57 -80 -88 -23 -31 -59 -77 -79 -101 -21 -24 -38 -50 -38
-57 0 -25 23 -27 41 -3 18 24 18 23 4 -25 -19 -62 -19 -115 -1 -122 7 -3 39 6
71 20 32 15 68 26 81 26 21 0 23 -3 14 -26 -15 -37 -12 -110 4 -123 15 -12 37
-7 76 19 14 9 45 22 70 29 25 7 62 22 83 32 37 19 37 19 37 -1 0 -12 5 -30 10
-41 11 -19 11 -19 48 0 20 10 68 28 106 40 38 12 86 31 107 41 49 26 148 128
208 215 38 57 58 75 103 98 52 26 59 27 102 15 36 -9 46 -17 46 -33 0 -11 -20
-283 -45 -605 l-44 -585 -64 -160 c-100 -251 -195 -507 -223 -606 -35 -121
-32 -232 9 -302 31 -53 64 -69 84 -41 7 10 13 25 13 35 0 9 6 22 14 28 11 9
14 2 19 -40 4 -28 14 -63 24 -78 10 -14 22 -39 28 -55 15 -42 39 -55 64 -32
15 14 24 15 40 7 46 -25 129 97 193 282 24 70 38 87 30 39 -2 -15 1 -70 7
-122 9 -82 16 -107 54 -180 36 -70 48 -85 68 -85 45 0 103 143 117 290 l8 80
24 -45 c14 -25 32 -63 40 -85 9 -22 22 -40 30 -40 8 0 24 18 35 40 17 34 20
60 20 170 0 125 -2 137 -49 305 -47 167 -48 178 -43 265 7 94 38 310 107 745
31 200 43 306 52 492 10 201 14 239 27 242 49 14 314 67 421 85 276 45 407 55
675 56 238 0 268 -2 350 -23 112 -28 167 -58 171 -92 1 -14 16 -63 33 -110 41
-114 40 -128 -14 -191 -25 -29 -50 -69 -55 -88 -15 -54 -12 -254 5 -360 24
-148 49 -179 90 -114 11 18 22 32 25 33 3 0 18 -24 34 -53 16 -28 40 -67 53
-85 24 -32 26 -32 44 -16 10 9 23 33 30 53 13 41 40 91 49 91 10 0 47 -73 55
-107 3 -17 13 -37 22 -44 13 -11 19 -9 39 14 13 15 25 27 27 27 11 0 48 -105
57 -167 15 -95 45 -153 91 -176 31 -15 170 -40 289 -53 19 -2 61 -13 93 -24
55 -20 175 -40 315 -55 71 -7 84 5 65 56 l-11 29 61 -3 c74 -2 80 9 47 87 -51
119 -75 157 -130 210 -32 31 -67 71 -79 89 -11 18 -84 94 -161 168 -133 129
-142 140 -184 230 -59 127 -133 317 -145 370 -5 24 -12 69 -15 99 l-6 55 40
27 c46 32 99 110 123 182 29 86 40 211 34 401 -6 201 -22 308 -92 630 -70 318
-85 407 -92 567 -12 287 38 529 192 916 146 369 206 699 208 1127 1 226 -9
338 -45 503 l-20 94 21 51 c63 157 76 355 42 612 -38 283 -100 499 -207 724
l-64 134 50 87 c177 310 270 586 271 808 1 263 -54 689 -117 907 -36 125 -41
179 -54 595 -20 661 -38 763 -193 1074 l-79 159 4 72 c4 55 11 84 31 118 36
61 28 81 -30 74 -53 -6 -93 -40 -155 -132 -93 -139 -161 -308 -229 -568 -40
-157 -126 -404 -158 -455 -7 -11 -16 -11 -55 2 -57 20 -148 9 -275 -31 l-85
-26 -130 33 c-99 26 -153 35 -220 35 l-90 1 -28 60 c-15 33 -35 91 -43 129
-31 135 -47 181 -109 300 -129 248 -417 667 -464 673 -14 2 -25 -3 -28 -13z"/>
<path d="M4862 7061 c-36 -36 -71 -109 -111 -232 -32 -98 -91 -335 -112 -452
-10 -55 -15 -66 -29 -62 -50 16 -180 35 -238 35 -128 0 -291 -39 -404 -96 -26
-13 -50 -24 -53 -24 -2 0 -34 59 -70 130 -153 304 -304 558 -346 581 -26 13
-76 11 -108 -5 -45 -24 -134 -127 -173 -202 -68 -132 -73 -158 -72 -369 2
-369 76 -757 165 -868 17 -20 38 -61 48 -90 11 -30 33 -82 49 -118 22 -46 35
-94 46 -174 8 -60 14 -111 12 -112 -1 -1 -137 -7 -301 -12 -309 -11 -866 -50
-1061 -75 -69 -9 -150 -28 -215 -50 -119 -41 -159 -44 -336 -21 -216 29 -494
90 -702 156 -259 83 -312 93 -466 94 -133 0 -143 -1 -197 -28 -184 -90 -236
-316 -135 -586 19 -50 70 -147 123 -231 50 -80 109 -182 131 -226 41 -85 130
-214 204 -298 l43 -48 17 21 c23 29 46 131 60 275 17 175 9 270 -34 396 -20
58 -39 125 -43 149 l-7 44 49 -7 c112 -16 313 -101 536 -228 79 -45 108 -66
104 -78 -2 -8 -22 -55 -44 -105 -62 -140 -64 -160 -54 -510 12 -397 6 -479
-47 -665 -91 -323 -96 -353 -93 -570 2 -107 -2 -256 -8 -330 -8 -92 -8 -197
-2 -330 8 -168 13 -203 32 -248 32 -73 113 -146 188 -168 31 -9 67 -20 80 -25
16 -6 24 -5 28 4 5 14 49 11 117 -8 23 -6 29 -4 33 12 6 20 6 20 67 1 71 -22
87 -18 87 17 0 65 -85 165 -140 165 -38 0 -89 50 -125 125 -25 50 -27 62 -21
123 4 37 18 92 32 122 14 30 36 109 50 174 14 66 32 133 40 149 9 15 64 94
123 173 60 80 113 155 118 167 61 131 127 258 147 282 l24 29 78 -49 c168
-105 371 -217 420 -231 58 -17 248 -44 310 -44 l41 0 28 -77 c20 -54 44 -95
83 -141 46 -55 58 -77 79 -151 21 -77 23 -98 17 -199 l-7 -112 36 -34 c34 -32
102 -64 214 -101 54 -17 73 -14 73 10 0 12 6 12 27 4 15 -6 42 -8 60 -4 31 5
34 3 57 -43 21 -42 26 -71 36 -213 20 -295 28 -331 119 -514 l80 -160 11 -130
c12 -142 25 -216 46 -256 16 -32 156 -104 289 -149 136 -46 133 -46 147 -15 9
21 17 25 35 20 13 -3 44 -8 71 -11 26 -3 68 -12 94 -21 26 -8 60 -13 75 -11
25 3 28 7 27 41 l-1 37 36 -7 c39 -8 43 -8 149 -5 65 2 72 4 72 22 0 28 -76
140 -121 179 -57 48 -148 100 -209 118 -30 8 -63 23 -74 32 -30 27 -66 95 -86
167 l-19 67 25 30 c31 36 58 90 114 222 24 55 98 217 165 360 229 488 321 724
375 965 50 225 147 502 215 614 31 51 70 129 87 172 l31 79 -2 410 c-1 415 -6
495 -42 822 l-20 183 22 72 c12 40 32 93 45 119 40 75 55 183 56 394 0 180 2
195 28 275 15 47 40 110 54 141 34 76 45 128 52 261 9 162 -21 549 -55 699
-24 107 -96 227 -193 321 -104 101 -198 126 -256 69z m-853 -4988 l-2 -128 -9
113 c-9 104 -7 142 7 142 3 0 4 -57 4 -127z"/>
</g>
</svg>
